<svg id="visual" viewBox="0 0 900 675" width="900" height="675" xmlns="http://www.w3.org/2000/svg" xmlns:xlink="http://www.w3.org/1999/xlink" version="1.1"><rect x="0" y="0" width="900" height="675" fill="#ffffff"></rect><path d="M0 289L21.5 307.2C43 325.3 86 361.7 128.8 350.5C171.7 339.3 214.3 280.7 257.2 266C300 251.3 343 280.7 385.8 317.2C428.7 353.7 471.3 397.3 514.2 384.8C557 372.3 600 303.7 642.8 310C685.7 316.3 728.3 397.7 771.2 430.3C814 463 857 447 878.5 439L900 431L900 676L878.5 676C857 676 814 676 771.2 676C728.3 676 685.7 676 642.8 676C600 676 557 676 514.2 676C471.3 676 428.7 676 385.8 676C343 676 300 676 257.2 676C214.3 676 171.7 676 128.8 676C86 676 43 676 21.5 676L0 676Z" fill="#f4bf0d" stroke-linecap="round" stroke-linejoin="miter"></path></svg>